<svg width="21" height="21" viewBox="0 0 21 21" fill="none" xmlns="http://www.w3.org/2000/svg">
<path d="M9.64604 0H11.2856C11.2977 0.0443951 11.3349 0.0361745 11.3672 0.0383668C11.7619 0.0658086 12.1542 0.119456 12.5417 0.198956C14.6676 0.619646 16.6112 1.68846 18.1056 3.25864C19.6 4.82881 20.572 6.82335 20.888 8.96837C20.9231 9.20569 20.9099 9.45123 20.9976 9.68088V11.4008C20.9308 11.42 20.9571 11.4786 20.951 11.5203C20.893 11.8913 20.8623 12.2679 20.7785 12.6329C19.9648 16.1743 17.9 18.6873 14.5839 20.1718C14.2076 20.3417 13.8172 20.4785 13.4171 20.5807C13.4122 20.5418 13.4067 20.5215 13.4067 20.5018C13.4067 17.9934 13.4056 15.4848 13.4034 12.976C13.4034 12.8461 13.4412 12.8187 13.5639 12.8198C14.1994 12.8258 14.8348 12.8198 15.4697 12.8269C15.6264 12.8269 15.6757 12.782 15.6938 12.6301C15.7825 11.8847 15.8793 11.1401 15.9841 10.3961C16.006 10.2372 15.9841 10.1868 15.8088 10.1895C15.0644 10.1994 14.3199 10.1933 13.5754 10.1939C13.4861 10.1939 13.4018 10.2125 13.404 10.0673C13.4133 9.45945 13.399 8.85053 13.4193 8.2427C13.4374 7.69461 13.7096 7.39809 14.2492 7.28245C14.4243 7.25238 14.602 7.24026 14.7795 7.24627C15.163 7.24299 15.5464 7.24627 15.9299 7.24627C16.0159 7.24627 16.086 7.25559 16.0849 7.12624C16.0794 6.4225 16.0805 5.7182 16.0849 5.01446C16.0849 4.91635 16.052 4.8884 15.9573 4.88018C15.2287 4.8177 14.4985 4.77056 13.7661 4.80509C13.1722 4.83195 12.6064 4.98377 12.1013 5.30988C11.1963 5.89414 10.8003 6.77163 10.7148 7.80861C10.6556 8.53099 10.6918 9.25666 10.6962 9.98124C10.6962 10.1687 10.6414 10.2054 10.4661 10.2005C9.85146 10.1895 9.23683 10.2005 8.62165 10.1933C8.48798 10.1933 8.43156 10.2153 8.4332 10.3687C8.44087 11.1273 8.44087 11.8858 8.4332 12.6444C8.4332 12.7863 8.46826 12.8296 8.61398 12.828C9.24943 12.8198 9.88433 12.828 10.5198 12.822C10.6474 12.822 10.694 12.8472 10.694 12.9864C10.6896 15.6044 10.6896 18.2223 10.694 20.84C10.694 20.9704 10.6534 20.9973 10.5324 20.9973C9.87638 21.0007 9.2216 20.9403 8.57727 20.8169C5.97576 20.3056 3.83057 19.0219 2.21674 16.9167C0.212882 14.3035 -0.439002 11.3493 0.287931 8.1435C1.25206 3.88759 4.67035 0.771709 8.97717 0.108522C9.19848 0.077281 9.43075 0.093175 9.64604 0Z" fill="#E71F7B"/>
</svg>