<svg width="21" height="21" viewBox="0 0 21 21" fill="none" xmlns="http://www.w3.org/2000/svg">
<path d="M11.2747 21H9.63251C9.61747 20.9436 9.56984 20.9611 9.53224 20.9574C7.29209 20.733 5.29763 19.913 3.61532 18.4136C0.935165 16.0315 -0.262 13.0225 0.0488886 9.44436C0.223077 7.26549 1.11803 5.20673 2.59241 3.59319C5.16977 0.733434 8.39773 -0.418745 12.1998 0.130389C13.8822 0.369852 15.4015 1.05439 16.7704 2.0674C16.8845 2.15266 16.8757 2.19278 16.798 2.29684C16.0575 3.25302 15.3204 4.21212 14.5867 5.17415C14.4889 5.29952 14.4312 5.32711 14.2908 5.22305C13.3484 4.52138 12.2257 4.1026 11.0541 4.0157C9.65446 3.8843 8.25103 4.22406 7.06644 4.98108C5.27256 6.12699 4.24337 7.77063 4.02901 9.88317C3.9354 10.6872 4.00197 11.5017 4.22488 12.2799C4.44779 13.058 4.82261 13.7842 5.32772 14.4167C6.89846 16.4151 8.98316 17.2864 11.4853 16.9028C13.9875 16.5192 15.6773 15.051 16.61 12.7016C16.6802 12.526 16.6476 12.4934 16.4633 12.4934C14.5478 12.4997 12.6336 12.4934 10.7181 12.5022C10.5238 12.5022 10.49 12.4445 10.4912 12.2665C10.4988 11.083 10.4988 9.89988 10.4912 8.71719C10.4912 8.52913 10.5376 8.484 10.7244 8.484C14.0756 8.48985 17.426 8.48985 20.7756 8.484C20.8508 8.484 20.926 8.484 21.0013 8.484V11.3563C20.9448 11.3713 20.9637 11.4202 20.9586 11.4566C20.901 11.8415 20.8621 12.2302 20.7856 12.6113C19.9019 17.0119 16.2113 20.3932 11.7222 20.9298C11.5731 20.9461 11.4126 20.911 11.2747 21Z" fill="#E71F7B"/>
</svg>